<svg width="110" height="73" viewBox="0 0 110 73" fill="none" xmlns="http://www.w3.org/2000/svg">
<g clip-path="url(#clip0_34_27)">
<path fill-rule="evenodd" clip-rule="evenodd" d="M21.59 1.33H19.45V0H30.2099V1.3L28.35 1.39V2.68C28.35 19.5133 28.35 36.34 28.35 53.16C28.3054 54.078 28.6196 54.9773 29.2261 55.6678C29.8326 56.3582 30.6839 56.7858 31.6 56.86C32.0707 56.8462 32.5338 56.7378 32.9618 56.5413C33.3897 56.3447 33.7737 56.0641 34.091 55.7161C34.4082 55.368 34.6522 54.9597 34.8084 54.5154C34.9645 54.0711 35.0297 53.6 35 53.13V1.38H32.9V0H43.9V1.31H41.74V2.6C41.74 18.17 41.74 33.75 41.74 49.32C41.7764 50.8843 41.3646 52.4264 40.5531 53.7642C39.7415 55.102 38.5641 56.1797 37.16 56.87C34.8897 58.1654 32.2353 58.6189 29.6637 58.1507C27.0921 57.6825 24.7679 56.3225 23.1 54.31C22.1047 53.0947 21.5637 51.5708 21.57 50C21.57 34.5 21.57 19.0067 21.57 3.52L21.59 1.33Z" fill="#17479E"/>
<path fill-rule="evenodd" clip-rule="evenodd" d="M87.59 56.37H89.65C89.65 56.85 89.65 57.23 89.71 57.7H78.84V56.43L80.67 56.31V1.41001L78.85 1.31001C78.85 0.91001 78.85 0.50001 78.79 0.0100098H89.61V1.33001H87.61L87.59 56.37Z" fill="#17479E"/>
<path fill-rule="evenodd" clip-rule="evenodd" d="M75.7999 44.78C75.2799 45.06 74.1299 45.51 73.4999 45.78C73.127 45.9184 72.7463 46.0352 72.3599 46.13C71.4185 46.368 70.4634 46.5484 69.4999 46.67C68.0833 46.8003 66.656 46.7566 65.2499 46.54C64.8799 46.48 64.7099 46.54 64.5099 46.12C65.4322 43.4738 65.7733 40.6599 65.5099 37.87C65.7053 36.8392 66.0139 35.8331 66.4299 34.87C66.7999 34.11 67.1899 32.97 67.5799 32.22C68.7395 29.932 70.077 27.7386 71.5799 25.66C72.1999 24.8 70.1399 23.82 69.3199 24.46C67.8906 25.8648 66.5545 27.3613 65.3199 28.94C65.1999 29.08 64.3199 30.37 63.7299 31.21C63.9299 30.92 62.2199 28.64 61.9999 28.32C61.4598 27.5046 60.8616 26.7293 60.2099 26C58.2899 23.91 55.8299 21.63 52.8599 21.37C52.0895 21.3211 51.3178 21.4417 50.599 21.7233C49.8803 22.0049 49.232 22.4407 48.6999 23C47.2499 24.71 46.9999 27.23 47.1299 29.37C47.233 30.6648 47.4573 31.9471 47.7999 33.2C48.2274 34.9995 48.8511 36.7466 49.6599 38.41C50.2425 39.6227 50.9109 40.7924 51.6599 41.91C52.8763 43.6074 54.2709 45.1696 55.8199 46.57C56.1661 46.8976 56.4034 47.3235 56.5 47.7902C56.5965 48.2569 56.5477 48.7419 56.3599 49.18C55.9499 50.98 55.5099 52.78 55.0599 54.57C54.9445 55.0304 54.9884 55.5163 55.1846 55.9485C55.3807 56.3807 55.7175 56.7337 56.1399 56.95C56.7038 57.0808 57.292 57.062 57.8463 56.8954C58.4006 56.7287 58.9017 56.4201 59.2999 56C60.0947 55.0747 60.73 54.0237 61.1799 52.89C61.7034 51.9402 62.5686 51.2252 63.5999 50.89C64.7399 50.43 65.8499 50.82 67.0599 50.79C70.5699 50.7 73.1999 48.16 75.6099 46.04C75.9244 45.8084 76.1445 45.471 76.2299 45.09C76.2599 44.68 75.7999 44.78 75.7999 44.78ZM60.4399 37.38C60.4899 37.28 60.5399 37.11 60.5099 37.14C59.7099 38.94 59.0499 41.73 58.1199 43.8C58.1199 43.8 56.8899 42.92 56.8399 42.88C56.3334 42.4951 55.8555 42.074 55.4099 41.62C55.1599 41.38 54.8699 41.06 54.6399 40.8C54.4099 40.54 54.1999 40.26 53.9999 40C53.7413 39.6805 53.5009 39.3466 53.2799 39C52.4076 37.7692 51.7109 36.4229 51.2099 35C50.9093 34.1377 50.6687 33.2555 50.4899 32.36C49.9999 30.07 49.4899 26.24 51.4899 24.49C54.5499 21.83 57.6799 26.33 58.8999 28.71C59.2481 29.3828 59.5521 30.0777 59.8099 30.79C60.4099 32.41 61.2199 34.7 59.8099 36.08C59.3499 36.53 58.4799 37.08 59.1099 38.01C59.5638 37.6677 60.0493 37.3697 60.5599 37.12C60.5599 37.12 60.4199 37.39 60.4399 37.38Z" fill="#F7941D"/>
<path d="M4.36322 69.1662H5.50956C5.50956 69.5276 5.43255 69.8949 5.27852 70.2681C5.13041 70.6354 4.94676 70.9257 4.72756 71.139C4.26547 71.5774 3.68785 71.8084 2.99471 71.8321C2.35489 71.8618 1.80986 71.6455 1.35962 71.1834C0.921222 70.7391 0.625009 70.1289 0.470979 69.3528C0.393963 68.9855 0.355456 68.5679 0.355456 68.0999C0.355456 67.5548 0.399888 67.0957 0.488751 66.7225C0.879753 65.1348 1.72988 64.3409 3.03915 64.3409C3.64934 64.3409 4.1766 64.5275 4.62092 64.9008C5.19558 65.3865 5.49179 66.0471 5.50956 66.8824H4.36322C4.3336 66.5566 4.22992 66.2752 4.05219 66.0382C3.77968 65.6828 3.38868 65.5287 2.87919 65.5761C2.6126 65.5998 2.37563 65.7183 2.16828 65.9316C1.96685 66.1389 1.81282 66.4026 1.70619 66.7225C1.60547 67.0424 1.54623 67.4512 1.52846 67.9488C1.50476 68.5531 1.56697 69.0537 1.71507 69.4506C1.91057 69.9779 2.18013 70.3215 2.52373 70.4814C2.64222 70.5347 2.78144 70.5644 2.9414 70.5703C3.1132 70.5762 3.28204 70.5495 3.44792 70.4903C3.8093 70.3659 4.06108 70.1497 4.20326 69.8416C4.25658 69.7172 4.3099 69.4921 4.36322 69.1662ZM6.45527 64.4564H7.66382V70.3837H10.4719V71.61H6.45527V64.4564ZM12.4454 64.4564V71.61H11.2368V64.4564H12.4454ZM13.612 64.4564H17.8597V65.6828H14.8117V67.309H17.6198V68.5353H14.8117V70.3837H17.993V71.61H13.612V64.4564ZM18.8883 64.4564H20.0791L22.4517 69.3706V64.4564H23.6603V71.61H22.4695L20.088 66.6247V71.61H18.8883V64.4564ZM24.2683 64.4564H28.9692V65.6828H27.2541V71.61H26.0456V65.6828H24.2683V64.4564ZM33.9641 66.6336H32.8355C32.8414 66.3255 32.7466 66.0678 32.5511 65.8605C32.3319 65.6294 32.0239 65.511 31.6269 65.505C30.9575 65.4932 30.602 65.7687 30.5606 66.3315C30.5487 66.5566 30.5754 66.7225 30.6406 66.8291C30.6879 66.9002 30.7857 66.9713 30.9338 67.0424C31.0108 67.1431 31.5025 67.2912 32.4089 67.4867C33.0725 67.6289 33.5316 67.8629 33.7863 68.1887C34.0411 68.5086 34.1685 68.9293 34.1685 69.4506C34.1685 69.8297 34.1003 70.1941 33.9641 70.5436C33.8278 70.8931 33.6471 71.1568 33.422 71.3345C33.0191 71.6544 32.406 71.8203 31.5825 71.8321C31.3929 71.8381 31.1708 71.8055 30.916 71.7344C30.5961 71.6396 30.3384 71.5063 30.1429 71.3345C29.6453 70.8961 29.3728 70.28 29.3254 69.4861H30.4984C30.4984 69.7705 30.5813 70.0164 30.7472 70.2237C30.9842 70.5258 31.3515 70.668 31.8491 70.6503C32.2934 70.6325 32.6044 70.5199 32.7822 70.3126C32.9303 70.1467 33.0043 69.9393 33.0043 69.6905C33.0043 69.4595 32.9392 69.264 32.8088 69.104C32.6607 68.9204 32.323 68.7663 31.7958 68.6419C31.073 68.4701 30.6435 68.3576 30.5073 68.3042C29.7904 68.008 29.432 67.4363 29.432 66.5892C29.432 66.5003 29.4379 66.4114 29.4498 66.3226C29.4972 65.7183 29.6956 65.2444 30.0452 64.9008C30.4302 64.5275 30.9664 64.3409 31.6536 64.3409C32.5778 64.3409 33.2354 64.6431 33.6264 65.2473C33.8634 65.6146 33.9818 66.0234 33.9818 66.4737C33.9818 66.5388 33.9759 66.5921 33.9641 66.6336ZM34.966 64.4564H36.0501V65.6028C36.0501 66.1597 35.8606 66.5714 35.4814 66.838C35.3866 66.9032 35.2148 66.9594 34.966 67.0068V66.5536C35.1852 66.5122 35.354 66.3966 35.4725 66.2071C35.6147 66.0175 35.6503 65.8427 35.5792 65.6828H34.966V64.4564ZM40.6316 64.4564V71.61H39.4231V64.4564H40.6316ZM41.7094 64.4564H42.9002L45.2728 69.3706V64.4564H46.4814V71.61H45.2906L42.9091 66.6247V71.61H41.7094V64.4564ZM47.0894 64.4564H51.7903V65.6828H50.0752V71.61H48.8667V65.6828H47.0894V64.4564ZM52.5286 64.4564H56.7763V65.6828H53.7282V67.309H56.5363V68.5353H53.7282V70.3837H56.9096V71.61H52.5286V64.4564ZM57.8937 71.61V64.4564H61.155C61.469 64.4564 61.7475 64.5483 61.9904 64.7319C62.251 64.9393 62.4228 65.2236 62.5058 65.585C62.5887 65.9464 62.6302 66.2396 62.6302 66.4648C62.6302 66.6603 62.6094 66.8498 62.568 67.0335C62.4969 67.3179 62.3932 67.5489 62.2569 67.7266C62.1622 67.857 61.9992 68.0021 61.7682 68.1621C62.0111 68.3694 62.1355 68.4761 62.1414 68.482C62.3014 68.6538 62.3932 68.8819 62.4169 69.1662C62.4465 69.4447 62.4673 69.9749 62.4791 70.7569C62.4791 71.0353 62.5532 71.2308 62.7013 71.3434V71.61H61.4039C61.3091 71.3967 61.2557 71.1746 61.2439 70.9435C61.2439 70.9435 61.2439 70.4636 61.2439 69.5039C61.2439 69.024 61.004 68.7841 60.5241 68.7841H59.1023V71.61H57.8937ZM59.1023 65.6828V67.5578H60.7551C60.9269 67.5578 61.0899 67.4689 61.2439 67.2912C61.4275 67.072 61.5046 66.8054 61.4749 66.4914C61.4749 65.9523 61.2291 65.6828 60.7374 65.6828H59.1023ZM63.7092 64.4564H67.9569V65.6828H64.9088V67.309H67.7169V68.5353H64.9088V70.3837H68.0902V71.61H63.7092V64.4564ZM73.3309 66.6336H72.2023C72.2083 66.3255 72.1135 66.0678 71.918 65.8605C71.6988 65.6294 71.3907 65.511 70.9938 65.505C70.3243 65.4932 69.9689 65.7687 69.9274 66.3315C69.9156 66.5566 69.9422 66.7225 70.0074 66.8291C70.0548 66.9002 70.1525 66.9713 70.3007 67.0424C70.3777 67.1431 70.8694 67.2912 71.7758 67.4867C72.4393 67.6289 72.8984 67.8629 73.1532 68.1887C73.4079 68.5086 73.5353 68.9293 73.5353 69.4506C73.5353 69.8297 73.4672 70.1941 73.3309 70.5436C73.1947 70.8931 73.014 71.1568 72.7888 71.3345C72.386 71.6544 71.7728 71.8203 70.9494 71.8321C70.7598 71.8381 70.5376 71.8055 70.2829 71.7344C69.963 71.6396 69.7053 71.5063 69.5098 71.3345C69.0121 70.8961 68.7396 70.28 68.6922 69.4861H69.8652C69.8652 69.7705 69.9482 70.0164 70.114 70.2237C70.351 70.5258 70.7183 70.668 71.2159 70.6503C71.6603 70.6325 71.9713 70.5199 72.149 70.3126C72.2971 70.1467 72.3712 69.9393 72.3712 69.6905C72.3712 69.4595 72.306 69.264 72.1757 69.104C72.0276 68.9204 71.6899 68.7663 71.1626 68.6419C70.4399 68.4701 70.0104 68.3576 69.8741 68.3042C69.1573 68.008 68.7989 67.4363 68.7989 66.5892C68.7989 66.5003 68.8048 66.4114 68.8166 66.3226C68.864 65.7183 69.0625 65.2444 69.412 64.9008C69.7971 64.5275 70.3332 64.3409 71.0204 64.3409C71.9446 64.3409 72.6022 64.6431 72.9932 65.2473C73.2302 65.6146 73.3487 66.0234 73.3487 66.4737C73.3487 66.5388 73.3428 66.5921 73.3309 66.6336ZM73.9152 64.4564H78.6161V65.6828H76.901V71.61H75.6925V65.6828H73.9152V64.4564ZM83.6109 66.6336H82.4824C82.4883 66.3255 82.3935 66.0678 82.198 65.8605C81.9788 65.6294 81.6707 65.511 81.2738 65.505C80.6044 65.4932 80.2489 65.7687 80.2075 66.3315C80.1956 66.5566 80.2223 66.7225 80.2874 66.8291C80.3348 66.9002 80.4326 66.9713 80.5807 67.0424C80.6577 67.1431 81.1494 67.2912 82.0558 67.4867C82.7193 67.6289 83.1785 67.8629 83.4332 68.1887C83.688 68.5086 83.8153 68.9293 83.8153 69.4506C83.8153 69.8297 83.7472 70.1941 83.6109 70.5436C83.4747 70.8931 83.294 71.1568 83.0689 71.3345C82.666 71.6544 82.0529 71.8203 81.2294 71.8321C81.0398 71.8381 80.8177 71.8055 80.5629 71.7344C80.243 71.6396 79.9853 71.5063 79.7898 71.3345C79.2922 70.8961 79.0196 70.28 78.9722 69.4861H80.1452C80.1452 69.7705 80.2282 70.0164 80.3941 70.2237C80.631 70.5258 80.9983 70.668 81.496 70.6503C81.9403 70.6325 82.2513 70.5199 82.429 70.3126C82.5772 70.1467 82.6512 69.9393 82.6512 69.6905C82.6512 69.4595 82.586 69.264 82.4557 69.104C82.3076 68.9204 81.9699 68.7663 81.4427 68.6419C80.7199 68.4701 80.2904 68.3576 80.1541 68.3042C79.4373 68.008 79.0789 67.4363 79.0789 66.5892C79.0789 66.5003 79.0848 66.4114 79.0967 66.3226C79.144 65.7183 79.3425 65.2444 79.692 64.9008C80.0771 64.5275 80.6133 64.3409 81.3005 64.3409C82.2247 64.3409 82.8823 64.6431 83.2733 65.2473C83.5102 65.6146 83.6287 66.0234 83.6287 66.4737C83.6287 66.5388 83.6228 66.5921 83.6109 66.6336ZM86.917 64.4564H91.0402V65.6828H88.1255V67.309H90.6937V68.5353H88.1255V71.61H86.917V64.4564ZM92.9515 64.4564V71.61H91.743V64.4564H92.9515ZM94.1181 71.61V64.4564H97.3794C97.6934 64.4564 97.9719 64.5483 98.2148 64.7319C98.4754 64.9393 98.6472 65.2236 98.7302 65.585C98.8131 65.9464 98.8546 66.2396 98.8546 66.4648C98.8546 66.6603 98.8338 66.8498 98.7924 67.0335C98.7213 67.3179 98.6176 67.5489 98.4813 67.7266C98.3866 67.857 98.2236 68.0021 97.9926 68.1621C98.2355 68.3694 98.3599 68.4761 98.3658 68.482C98.5258 68.6538 98.6176 68.8819 98.6413 69.1662C98.6709 69.4447 98.6917 69.9749 98.7035 70.7569C98.7035 71.0353 98.7776 71.2308 98.9257 71.3434V71.61H97.6283C97.5335 71.3967 97.4801 71.1746 97.4683 70.9435C97.4683 70.9435 97.4683 70.4636 97.4683 69.5039C97.4683 69.024 97.2284 68.7841 96.7485 68.7841H95.3267V71.61H94.1181ZM95.3267 65.6828V67.5578H96.9795C97.1514 67.5578 97.3143 67.4689 97.4683 67.2912C97.652 67.072 97.729 66.8054 97.6993 66.4914C97.6993 65.9523 97.4535 65.6828 96.9618 65.6828H95.3267ZM104.19 66.6336H103.062C103.068 66.3255 102.973 66.0678 102.777 65.8605C102.558 65.6294 102.25 65.511 101.853 65.505C101.184 65.4932 100.828 65.7687 100.787 66.3315C100.775 66.5566 100.801 66.7225 100.867 66.8291C100.914 66.9002 101.012 66.9713 101.16 67.0424C101.237 67.1431 101.729 67.2912 102.635 67.4867C103.299 67.6289 103.758 67.8629 104.012 68.1887C104.267 68.5086 104.395 68.9293 104.395 69.4506C104.395 69.8297 104.326 70.1941 104.19 70.5436C104.054 70.8931 103.873 71.1568 103.648 71.3345C103.245 71.6544 102.632 71.8203 101.809 71.8321C101.619 71.8381 101.397 71.8055 101.142 71.7344C100.822 71.6396 100.565 71.5063 100.369 71.3345C99.8714 70.8961 99.5989 70.28 99.5515 69.4861H100.724C100.724 69.7705 100.807 70.0164 100.973 70.2237C101.21 70.5258 101.578 70.668 102.075 70.6503C102.52 70.6325 102.831 70.5199 103.008 70.3126C103.156 70.1467 103.23 69.9393 103.23 69.6905C103.23 69.4595 103.165 69.264 103.035 69.104C102.887 68.9204 102.549 68.7663 102.022 68.6419C101.299 68.4701 100.87 68.3576 100.733 68.3042C100.017 68.008 99.6581 67.4363 99.6581 66.5892C99.6581 66.5003 99.664 66.4114 99.6759 66.3226C99.7233 65.7183 99.9217 65.2444 100.271 64.9008C100.656 64.5275 101.192 64.3409 101.88 64.3409C102.804 64.3409 103.461 64.6431 103.852 65.2473C104.089 65.6146 104.208 66.0234 104.208 66.4737C104.208 66.5388 104.202 66.5921 104.19 66.6336ZM104.774 64.4564H109.475V65.6828H107.76V71.61H106.552V65.6828H104.774V64.4564Z" fill="#17479E"/>
</g>
<defs>
<clipPath id="clip0_34_27">
<rect width="109.16" height="72.66" fill="white"/>
</clipPath>
</defs>
</svg>
